<svg width="603" height="222" viewBox="0 0 603 222" fill="none" xmlns="http://www.w3.org/2000/svg">
<g filter="url(#filter0_b)">
<path d="M193.859 168.3V171.3H196.859V168.3H193.859ZM156.659 168.3V165.3H153.659V168.3H156.659ZM156.659 216V219H159.659V216H156.659ZM118.859 216H115.859V219H118.859V216ZM118.859 168.3H121.859V165.3H118.859V168.3ZM3.65899 168.3H0.658985V171.3H3.65899V168.3ZM3.65899 141.3L1.27621 139.477L0.658985 140.284V141.3H3.65899ZM107.159 5.99998V2.99998H105.677L104.776 4.17725L107.159 5.99998ZM148.859 5.99998L151.254 7.80621L154.878 2.99998H148.859V5.99998ZM51.359 135.3L48.9637 133.494L45.3395 138.3H51.359V135.3ZM120.059 135.3V138.3H123.059V135.3H120.059ZM120.059 93V90H117.059V93H120.059ZM156.659 93H159.659V90H156.659V93ZM156.659 135.3H153.659V138.3H156.659V135.3ZM193.859 135.3H196.859V132.3H193.859V135.3ZM193.859 165.3H156.659V171.3H193.859V165.3ZM153.659 168.3V216H159.659V168.3H153.659ZM156.659 213H118.859V219H156.659V213ZM121.859 216V168.3H115.859V216H121.859ZM118.859 165.3H3.65899V171.3H118.859V165.3ZM6.65899 168.3V141.3H0.658985V168.3H6.65899ZM6.04176 143.123L109.542 7.82273L104.776 4.17725L1.27621 139.477L6.04176 143.123ZM107.159 8.99998H148.859V2.99998H107.159V8.99998ZM146.464 4.19376L48.9637 133.494L53.7543 137.106L151.254 7.80621L146.464 4.19376ZM51.359 138.3H120.059V132.3H51.359V138.3ZM123.059 135.3V93H117.059V135.3H123.059ZM120.059 96H156.659V90H120.059V96ZM153.659 93V135.3H159.659V93H153.659ZM156.659 138.3H193.859V132.3H156.659V138.3ZM190.859 135.3V168.3H196.859V135.3H190.859ZM252.872 206.4L251.235 208.914L251.248 208.922L251.262 208.931L252.872 206.4ZM221.672 169.2L218.95 170.461L218.956 170.474L221.672 169.2ZM221.672 53.1L224.388 54.3742L224.394 54.3614L221.672 53.1ZM252.872 15.9L254.483 18.431L254.496 18.4223L254.51 18.4136L252.872 15.9ZM342.872 15.9L341.235 18.4136L341.257 18.4279L341.279 18.4418L342.872 15.9ZM374.372 53.1L371.65 54.3614L371.656 54.3741L374.372 53.1ZM374.372 169.2L377.088 170.474L377.094 170.461L374.372 169.2ZM342.872 206.4L344.483 208.931L344.493 208.925L342.872 206.4ZM333.272 166.5L330.826 164.764L330.816 164.777L330.807 164.79L333.272 166.5ZM333.272 55.5L330.807 57.2097L330.816 57.223L330.826 57.2362L333.272 55.5ZM262.472 55.5L260.026 53.7637L260.016 53.777L260.007 53.7903L262.472 55.5ZM262.472 166.5L260.007 168.21L260.016 168.223L260.026 168.236L262.472 166.5ZM297.872 216C281.599 216 267.166 211.94 254.483 203.869L251.262 208.931C264.979 217.66 280.546 222 297.872 222V216ZM254.51 203.886C241.839 195.631 231.784 183.691 224.388 167.926L218.956 170.474C226.76 187.109 237.506 199.969 251.235 208.914L254.51 203.886ZM224.394 167.939C217.016 152.017 213.272 133.066 213.272 111H207.272C207.272 133.734 211.129 153.583 218.95 170.461L224.394 167.939ZM213.272 111C213.272 88.9326 217.016 70.0882 224.388 54.3741L218.956 51.8258C211.128 68.5118 207.272 88.2674 207.272 111H213.272ZM224.394 54.3614C231.791 38.3995 241.839 26.4773 254.483 18.431L251.262 13.369C237.506 22.1227 226.753 35.0005 218.95 51.8386L224.394 54.3614ZM254.51 18.4136C267.19 10.1524 281.613 5.99998 297.872 5.99998V-1.52588e-05C280.531 -1.52588e-05 264.955 4.44759 251.235 13.3864L254.51 18.4136ZM297.872 5.99998C314.131 5.99998 328.555 10.1524 341.235 18.4136L344.51 13.3864C330.79 4.44759 315.213 -1.52588e-05 297.872 -1.52588e-05V5.99998ZM341.279 18.4418C354.119 26.4909 364.259 38.4111 371.65 54.3614L377.094 51.8386C369.286 34.9889 358.426 22.1091 344.466 13.3581L341.279 18.4418ZM371.656 54.3741C379.028 70.0882 382.772 88.9326 382.772 111H388.772C388.772 88.2674 384.916 68.5118 377.088 51.8258L371.656 54.3741ZM382.772 111C382.772 133.066 379.029 152.017 371.65 167.939L377.094 170.461C384.916 153.583 388.772 133.734 388.772 111H382.772ZM371.656 167.926C364.266 183.679 354.119 195.617 341.252 203.875L344.493 208.925C358.426 199.983 369.279 187.121 377.088 170.474L371.656 167.926ZM341.262 203.869C328.579 211.94 314.146 216 297.872 216V222C315.199 222 330.766 217.66 344.483 208.931L341.262 203.869ZM297.872 188.1C313.863 188.1 326.581 181.412 335.737 168.21L330.807 164.79C322.764 176.388 311.882 182.1 297.872 182.1V188.1ZM335.719 168.236C345.04 155.102 349.472 135.87 349.472 111H343.472C343.472 135.33 339.105 153.098 330.826 164.764L335.719 168.236ZM349.472 111C349.472 86.13 345.04 66.8977 335.719 53.7637L330.826 57.2362C339.105 68.9023 343.472 86.67 343.472 111H349.472ZM335.737 53.7903C326.581 40.5879 313.863 33.9 297.872 33.9V39.9C311.882 39.9 322.764 45.612 330.807 57.2097L335.737 53.7903ZM297.872 33.9C282.069 33.9 269.37 40.5968 260.026 53.7637L264.919 57.2362C273.174 45.6032 284.076 39.9 297.872 39.9V33.9ZM260.007 53.7903C250.902 66.919 246.572 86.1397 246.572 111H252.572C252.572 86.6603 256.843 68.881 264.937 57.2097L260.007 53.7903ZM246.572 111C246.572 135.86 250.902 155.081 260.007 168.21L264.937 164.79C256.843 153.119 252.572 135.34 252.572 111H246.572ZM260.026 168.236C269.37 181.403 282.069 188.1 297.872 188.1V182.1C284.076 182.1 273.174 176.397 264.919 164.764L260.026 168.236ZM599.328 168.3V171.3H602.328V168.3H599.328ZM562.128 168.3V165.3H559.128V168.3H562.128ZM562.128 216V219H565.128V216H562.128ZM524.328 216H521.328V219H524.328V216ZM524.328 168.3H527.328V165.3H524.328V168.3ZM409.128 168.3H406.128V171.3H409.128V168.3ZM409.128 141.3L406.745 139.477L406.128 140.284V141.3H409.128ZM512.628 5.99998V2.99998H511.146L510.245 4.17725L512.628 5.99998ZM554.328 5.99998L556.723 7.80621L560.347 2.99998H554.328V5.99998ZM456.828 135.3L454.432 133.494L450.808 138.3H456.828V135.3ZM525.528 135.3V138.3H528.528V135.3H525.528ZM525.528 93V90H522.528V93H525.528ZM562.128 93H565.128V90H562.128V93ZM562.128 135.3H559.128V138.3H562.128V135.3ZM599.328 135.3H602.328V132.3H599.328V135.3ZM599.328 165.3H562.128V171.3H599.328V165.3ZM559.128 168.3V216H565.128V168.3H559.128ZM562.128 213H524.328V219H562.128V213ZM527.328 216V168.3H521.328V216H527.328ZM524.328 165.3H409.128V171.3H524.328V165.3ZM412.128 168.3V141.3H406.128V168.3H412.128ZM411.51 143.123L515.01 7.82273L510.245 4.17725L406.745 139.477L411.51 143.123ZM512.628 8.99998H554.328V2.99998H512.628V8.99998ZM551.932 4.19376L454.432 133.494L459.223 137.106L556.723 7.80621L551.932 4.19376ZM456.828 138.3H525.528V132.3H456.828V138.3ZM528.528 135.3V93H522.528V135.3H528.528ZM525.528 96H562.128V90H525.528V96ZM559.128 93V135.3H565.128V93H559.128ZM562.128 138.3H599.328V132.3H562.128V138.3ZM596.328 135.3V168.3H602.328V135.3H596.328Z" fill="white"/>
</g>
<defs>
<filter id="filter0_b" x="-29.3411" y="-30" width="661.669" height="282" filterUnits="userSpaceOnUse" color-interpolation-filters="sRGB">
<feFlood flood-opacity="0" result="BackgroundImageFix"/>
<feGaussianBlur in="BackgroundImage" stdDeviation="15"/>
<feComposite in2="SourceAlpha" operator="in" result="effect1_backgroundBlur"/>
<feBlend mode="normal" in="SourceGraphic" in2="effect1_backgroundBlur" result="shape"/>
</filter>
</defs>
</svg>
