<svg width="20" height="24" viewBox="0 0 20 24" fill="none" xmlns="http://www.w3.org/2000/svg">
<path fill-rule="evenodd" clip-rule="evenodd" d="M3.1581 7.89474C3.1581 4.11595 6.22142 1.05263 10.0002 1.05263C13.779 1.05263 16.8423 4.11595 16.8423 7.89474C16.8423 10.3442 15.594 12.333 14.1055 13.8344C12.6176 15.3352 10.9337 16.3023 10.1769 16.6949C10.0626 16.7541 9.93778 16.7541 9.82355 16.6949C9.06668 16.3023 7.38285 15.3352 5.8949 13.8344C4.40645 12.333 3.1581 10.3442 3.1581 7.89474ZM10.0002 0C5.64006 0 2.10547 3.53459 2.10547 7.89474C2.10547 10.7256 3.55134 12.9656 5.14737 14.5755C6.74389 16.1858 8.53478 17.2122 9.33888 17.6293C9.757 17.8461 10.2434 17.8461 10.6615 17.6293C11.4656 17.2122 13.2565 16.1858 14.853 14.5755C16.4491 12.9656 17.8949 10.7256 17.8949 7.89474C17.8949 3.53459 14.3603 0 10.0002 0ZM7.36863 7.89474C7.36863 6.44136 8.54682 5.26316 10.0002 5.26316C11.4536 5.26316 12.6318 6.44136 12.6318 7.89474C12.6318 9.34812 11.4536 10.5263 10.0002 10.5263C8.54682 10.5263 7.36863 9.34812 7.36863 7.89474ZM10.0002 4.21053C7.96547 4.21053 6.31599 5.86 6.31599 7.89474C6.31599 9.92947 7.96547 11.5789 10.0002 11.5789C12.0349 11.5789 13.6844 9.92947 13.6844 7.89474C13.6844 5.86 12.0349 4.21053 10.0002 4.21053ZM18.4676 17.8626C18.2159 17.7173 17.894 17.8035 17.7486 18.0552C17.6033 18.307 17.6896 18.6289 17.9413 18.7742C18.7315 19.2304 18.9474 19.6384 18.9474 19.8973C18.9474 20.1563 18.7315 20.5643 17.9413 21.0205C17.18 21.46 16.0471 21.844 14.6374 22.1153C13.234 22.3854 11.6339 22.5289 10 22.5289C8.36605 22.5289 6.76602 22.3854 5.36262 22.1153C3.95293 21.844 2.82004 21.46 2.05871 21.0205C1.26849 20.5643 1.05263 20.1563 1.05263 19.8973C1.05263 19.6384 1.26849 19.2304 2.05871 18.7742C2.31044 18.6289 2.39669 18.307 2.25135 18.0552C2.10601 17.8035 1.78412 17.7173 1.53239 17.8626C0.659633 18.3665 0 19.0476 0 19.8973C0 20.7471 0.659633 21.4282 1.53239 21.9321C2.43404 22.4527 3.69302 22.866 5.16369 23.149C6.64067 23.4332 8.30799 23.5816 10 23.5816C11.692 23.5816 13.3593 23.4332 14.8363 23.149C16.307 22.866 17.566 22.4527 18.4676 21.9321C19.3404 21.4282 20 20.7471 20 19.8973C20 19.0476 19.3404 18.3665 18.4676 17.8626Z" fill="#44D0A3"/>
</svg>
