<svg width="20" height="16" viewBox="0 0 20 16" fill="none" xmlns="http://www.w3.org/2000/svg">
<path fill-rule="evenodd" clip-rule="evenodd" d="M14.7489 3.70813e-07H5.25108H5.25104C4.17844 -1.43132e-05 3.31389 -2.61458e-05 2.63392 0.0913928C1.92795 0.186308 1.33354 0.389361 0.861452 0.861453C0.389361 1.33354 0.186307 1.92796 0.0913921 2.63392C-2.73699e-05 3.31389 -1.49776e-05 4.17845 3.97252e-07 5.25106V5.25108V10.043V10.0431C-1.49776e-05 11.1157 -2.73711e-05 11.9802 0.0913921 12.6602C0.186307 13.3662 0.389361 13.9606 0.861452 14.4327C1.33354 14.9048 1.92795 15.1078 2.63392 15.2027C3.3139 15.2941 4.17847 15.2941 5.2511 15.2941H14.7489C15.8215 15.2941 16.6861 15.2941 17.3661 15.2027C18.072 15.1078 18.6665 14.9048 19.1385 14.4327C19.6106 13.9606 19.8137 13.3662 19.9086 12.6602C20 11.9802 20 11.1157 20 10.0431V10.0431V5.25106V5.25102C20 4.17843 20 3.31389 19.9086 2.63392C19.8137 1.92796 19.6106 1.33354 19.1385 0.861453C18.6665 0.389361 18.072 0.186308 17.3661 0.0913928C16.6861 -2.61485e-05 15.8216 -1.43132e-05 14.749 3.70813e-07H14.7489ZM1.69334 1.69334C1.91041 1.47627 2.21517 1.33475 2.79068 1.25737C3.38312 1.17772 4.1683 1.17647 5.29412 1.17647H14.7059C15.8317 1.17647 16.6169 1.17772 17.2093 1.25737C17.7848 1.33475 18.0896 1.47627 18.3067 1.69334C18.3463 1.73302 18.3835 1.77564 18.4182 1.8223L10.7882 5.63727C10.2914 5.88568 9.70666 5.88568 9.20985 5.63727L1.58129 1.82299C1.61614 1.77606 1.65347 1.73322 1.69334 1.69334ZM1.23661 2.96598C1.17749 3.53634 1.17647 4.27592 1.17647 5.29412V10C1.17647 11.1258 1.17772 11.911 1.25737 12.5034C1.33475 13.0789 1.47627 13.3837 1.69334 13.6008C1.91041 13.8178 2.21517 13.9594 2.79068 14.0367C3.38312 14.1164 4.1683 14.1176 5.29412 14.1176H14.7059C15.8317 14.1176 16.6169 14.1164 17.2093 14.0367C17.7848 13.9594 18.0896 13.8178 18.3067 13.6008C18.5237 13.3837 18.6653 13.0789 18.7426 12.5034C18.8223 11.911 18.8235 11.1258 18.8235 10V5.29412C18.8235 4.27538 18.8225 3.53556 18.7633 2.96508L11.3144 6.68954C10.4864 7.10355 9.51174 7.10355 8.68372 6.68954L1.23661 2.96598Z" fill="#44D0A3"/>
</svg>
