<svg width="17" height="20" viewBox="0 0 17 20" fill="none" xmlns="http://www.w3.org/2000/svg">
<path d="M1.21428 0H11.5315L17 5.60752V18.75C17 19.4406 16.456 20 15.7857 20H1.21428C0.543971 20 0 19.4406 0 18.75V1.24999C0 0.559387 0.544034 0 1.21428 0Z" fill="#E2574C"/>
<path d="M16.9823 5.62495H12.7499C12.0796 5.62495 11.5356 5.06498 11.5356 4.37496V0.0124512L16.9823 5.62495Z" fill="#B53629"/>
<path d="M12.4431 9.47695C12.6465 9.47695 12.746 9.29445 12.746 9.11758C12.746 8.93444 12.6422 8.75757 12.4431 8.75757H11.2846C11.0582 8.75757 10.9319 8.95067 10.9319 9.16382V12.0944C10.9319 12.3557 11.0764 12.5007 11.2719 12.5007C11.4662 12.5007 11.6113 12.3557 11.6113 12.0944V11.2901H12.312C12.5293 11.2901 12.638 11.1069 12.638 10.9251C12.638 10.747 12.5293 10.57 12.312 10.57H11.6113V9.47695H12.4431ZM8.52759 8.75757H7.68C7.44989 8.75757 7.28655 8.92008 7.28655 9.1613V12.0969C7.28655 12.3963 7.5215 12.4901 7.68967 12.4901H8.57916C9.63193 12.4901 10.3271 11.777 10.3271 10.6763C10.3265 9.51258 9.67207 8.75757 8.52759 8.75757ZM8.5683 11.7664H8.05159V9.48134H8.51728C9.2222 9.48134 9.52877 9.96824 9.52877 10.6401C9.52877 11.2689 9.22761 11.7664 8.5683 11.7664ZM5.46334 8.75757H4.62367C4.38627 8.75757 4.25391 8.91879 4.25391 9.16382V12.0944C4.25391 12.3557 4.40568 12.5007 4.60966 12.5007C4.81365 12.5007 4.96542 12.3557 4.96542 12.0944V11.2388H5.4918C6.14144 11.2388 6.67756 10.765 6.67756 10.0032C6.67762 9.25759 6.16035 8.75757 5.46334 8.75757ZM5.4494 10.5514H4.96548V9.44571H5.4494C5.74811 9.44571 5.93815 9.6857 5.93815 9.99883C5.93752 10.3114 5.74811 10.5514 5.4494 10.5514Z" fill="white"/>
</svg>
