<svg width="20" height="20" viewBox="0 0 20 20" fill="none" xmlns="http://www.w3.org/2000/svg">
<path fill-rule="evenodd" clip-rule="evenodd" d="M3.60232 1.32858C3.41164 1.1379 3.10249 1.1379 2.91181 1.32858C0.837931 3.40245 0.604599 6.6857 2.36434 9.03202L3.76516 10.8998C5.28177 12.9219 7.07808 14.7182 9.10022 16.2348L10.968 17.6357C13.3143 19.3954 16.5975 19.1621 18.6714 17.0882C18.8621 16.8975 18.8621 16.5884 18.6714 16.3977L15.5319 13.2581C15.3004 13.0267 14.9251 13.0267 14.6936 13.2582L13.4829 14.4688C13.1101 14.8416 12.5406 14.934 12.069 14.6982C9.14053 13.234 6.76598 10.8595 5.30176 7.93102C5.06597 7.45944 5.15839 6.88988 5.53121 6.51707L6.74185 5.30643C6.97334 5.07493 6.97334 4.6996 6.74185 4.4681L3.60232 1.32858ZM2.07349 0.490255C2.72716 -0.163417 3.78697 -0.163419 4.44064 0.490254L7.58017 3.62978C8.27466 4.32427 8.27466 5.45026 7.58017 6.14475L6.36953 7.35539C6.35755 7.36737 6.35458 7.38567 6.36216 7.40082C7.71167 10.0998 9.90017 12.2883 12.5992 13.6378C12.6143 13.6454 12.6326 13.6424 12.6446 13.6305L13.8552 12.4198C14.5497 11.7253 15.6757 11.7253 16.3702 12.4198L19.5097 15.5594C20.1634 16.213 20.1634 17.2728 19.5097 17.9265C17.0187 20.4176 13.075 20.6979 10.2566 18.5841L8.38888 17.1833C6.27687 15.5993 4.40072 13.7231 2.81671 11.6111L1.41589 9.74336C-0.697853 6.92504 -0.417583 2.98132 2.07349 0.490255Z" fill="#44D0A3"/>
</svg>
